<?xml version="1.0" encoding="utf-8"?>
<!-- Generator: Adobe Illustrator 15.1.0, SVG Export Plug-In . SVG Version: 6.00 Build 0)  -->
<!DOCTYPE svg PUBLIC "-//W3C//DTD SVG 1.1//EN" "http://www.w3.org/Graphics/SVG/1.1/DTD/svg11.dtd">
<svg version="1.1" id="Layer_1" xmlns="http://www.w3.org/2000/svg" xmlns:xlink="http://www.w3.org/1999/xlink" x="0px" y="0px"
	 width="60px" height="34px" viewBox="0 0 60 34" enable-background="new 0 0 60 34" xml:space="preserve">
<g>
	<path fill="#A654A1" d="M33.276-44.002c0,1.105-0.887,2.002-1.98,2.002H1.98C0.887-42,0-42.896,0-44.002v-29.996
		C0-75.104,0.887-76,1.98-76h29.316c1.094,0,1.98,0.896,1.98,2.002V-44.002z"/>
	<text transform="matrix(0.9891 0 0 1 2.7764 -51.9932)" fill="#FFFFFF" font-family="'ArialMT'" font-size="22.0228">Ne</text>
	<text transform="matrix(0.9891 0 0 1 35.7715 -51.9932)" fill="#A654A1" font-family="'ArialMT'" font-size="22.0228">on</text>
</g>
<g>
	<path fill="#3BB54A" d="M33.276-6.002C33.276-4.896,32.39-4,31.296-4H1.98C0.887-4,0-4.896,0-6.002v-29.996
		C0-37.104,0.887-38,1.98-38h29.316c1.094,0,1.98,0.896,1.98,2.002V-6.002z"/>
	<text transform="matrix(0.9891 0 0 1 2.7764 -13.9932)" fill="#FFFFFF" font-family="'ArialMT'" font-size="22.0228">Ne</text>
	<text transform="matrix(0.9891 0 0 1 35.7715 -13.9932)" fill="#3BB54A" font-family="'ArialMT'" font-size="22.0228">on</text>
</g>
<g>
	<path fill="#85949C" d="M33.276,31.998c0,1.105-0.887,2.002-1.98,2.002H1.98C0.887,34,0,33.104,0,31.998V2.002
		C0,0.896,0.887,0,1.98,0h29.316c1.094,0,1.98,0.896,1.98,2.002V31.998z"/>
	<text transform="matrix(0.9891 0 0 1 2.7764 24.0068)" fill="#FFFFFF" font-family="'ArialMT'" font-size="22.0228">Ne</text>
	<text transform="matrix(0.9891 0 0 1 35.7715 24.0068)" fill="#85949C" font-family="'ArialMT'" font-size="22.0228">on</text>
</g>
<g>
	<path fill="#85949C" d="M19.966,56.489c0,0.65-0.532,1.178-1.188,1.178H1.188C0.532,57.667,0,57.14,0,56.489V38.845
		c0-0.65,0.532-1.178,1.188-1.178h17.59c0.656,0,1.188,0.527,1.188,1.178V56.489z"/>
	<text transform="matrix(1.0089 0 0 1 1.666 51.7881)" fill="#FFFFFF" font-family="'ArialMT'" font-size="12.9546">Ne</text>
	<text transform="matrix(1.0089 0 0 1 21.4629 51.7881)" fill="#85949C" font-family="'ArialMT'" font-size="12.9546">on</text>
</g>
</svg>
